<svg id="Layer_2" data-name="Layer 2" xmlns="http://www.w3.org/2000/svg" viewBox="0 0 245.85 245.85"><defs><style>.cls-2{fill:#1d1d1b;}</style></defs><title>np-loder-logo</title><path class="cls-1" d="M41.21,115.56a19.36,19.36,0,0,1,2.71-10.08,19.64,19.64,0,0,1,7.82-7.3,24.34,24.34,0,0,1,11.68-2.74,25.27,25.27,0,0,1,9.27,1.63,19.78,19.78,0,0,1,7,4.48,25.44,25.44,0,0,1,4.75,6.81,33.44,33.44,0,0,1,2.78,8.48A52.19,52.19,0,0,1,88,126.5,43.8,43.8,0,0,1,87,136.34a32,32,0,0,1-3.24,8.52,26.16,26.16,0,0,1-5.27,6.68,22.16,22.16,0,0,1-7.39,4.37,27.2,27.2,0,0,1-9.36,1.56q-10.53,0-17.22-6.62l4.87-7.92a18.38,18.38,0,0,0,5.43,3.94,16.43,16.43,0,0,0,6.92,1.33,14.38,14.38,0,0,0,7-1.7,13.69,13.69,0,0,0,5-4.54,22.39,22.39,0,0,0,2.83-6.31,26.92,26.92,0,0,0,1-7.26v-1.81a19.74,19.74,0,0,1-6.71,5.93,18.46,18.46,0,0,1-9.34,2.55,23.08,23.08,0,0,1-10.07-2.16A17.4,17.4,0,0,1,44,126.24,19.73,19.73,0,0,1,41.21,115.56ZM52,115.21q0,5.25,3.49,8A13.6,13.6,0,0,0,64.21,126a15.32,15.32,0,0,0,7.35-1.9,16.14,16.14,0,0,0,5.77-5.16,20.16,20.16,0,0,0-1.05-5,18.24,18.24,0,0,0-2.35-4.52,10.74,10.74,0,0,0-4.1-3.42,13.09,13.09,0,0,0-5.88-1.28A11.68,11.68,0,0,0,55.24,108,10.09,10.09,0,0,0,52,115.21Z" transform="translate(-3.57 -3.57)"/><path class="cls-1" d="M96.37,135.58a48.06,48.06,0,0,1,0-18.1,34.81,34.81,0,0,1,2.78-8.37,28.22,28.22,0,0,1,4.67-7,20.07,20.07,0,0,1,6.84-4.77,23.39,23.39,0,0,1,17.89,0,20.08,20.08,0,0,1,6.84,4.77,28.22,28.22,0,0,1,4.67,7,34.86,34.86,0,0,1,2.78,8.37,48.09,48.09,0,0,1,0,18.1,35.08,35.08,0,0,1-2.78,8.4,28.44,28.44,0,0,1-4.67,7,19.94,19.94,0,0,1-6.84,4.78,23.42,23.42,0,0,1-17.89,0,19.93,19.93,0,0,1-6.84-4.78,28.44,28.44,0,0,1-4.67-7A35,35,0,0,1,96.37,135.58ZM107,118.26a47.56,47.56,0,0,0,0,16.53,27.43,27.43,0,0,0,2.24,6.87,12.07,12.07,0,0,0,4.14,4.87,11.73,11.73,0,0,0,12.37,0,12.08,12.08,0,0,0,4.15-4.87,27.47,27.47,0,0,0,2.24-6.87,47.49,47.49,0,0,0,0-16.53,27.13,27.13,0,0,0-2.24-6.85,11.94,11.94,0,0,0-4.15-4.82,11.85,11.85,0,0,0-12.37,0,11.93,11.93,0,0,0-4.14,4.82A27.09,27.09,0,0,0,107,118.26Z" transform="translate(-3.57 -3.57)"/><path class="cls-1" d="M149.72,110.9a15.33,15.33,0,0,1,4.13-11,14.08,14.08,0,0,1,10.72-4.37,14.33,14.33,0,0,1,10.85,4.37,15.24,15.24,0,0,1,4.17,11,13.86,13.86,0,0,1-4.17,10.3,14.8,14.8,0,0,1-10.85,4.11,14.58,14.58,0,0,1-10.72-4.09A13.92,13.92,0,0,1,149.72,110.9Zm6.94,0A8.56,8.56,0,0,0,158.9,117a7.42,7.42,0,0,0,5.67,2.4,7.63,7.63,0,0,0,5.78-2.38,8.49,8.49,0,0,0,2.26-6.11,8.8,8.8,0,0,0-2.26-6.3,7.6,7.6,0,0,0-5.78-2.4,7.37,7.37,0,0,0-5.69,2.42A8.92,8.92,0,0,0,156.66,110.9Zm2.15,45.56,38.35-60h6l-38.44,60Zm23.24-13.69A14.86,14.86,0,0,1,186.16,132a14.17,14.17,0,0,1,10.7-4.28A14.39,14.39,0,0,1,207.62,132a14.73,14.73,0,0,1,4.17,10.72,14.87,14.87,0,1,1-29.74,0Zm6.9,0a8.1,8.1,0,0,0,2.2,5.89,7.6,7.6,0,0,0,5.71,2.26,7.82,7.82,0,0,0,5.78-2.26,8,8,0,0,0,2.26-5.89,8.27,8.27,0,0,0-2.26-6.06,7.75,7.75,0,0,0-5.78-2.3,7.53,7.53,0,0,0-5.71,2.3A8.41,8.41,0,0,0,188.95,142.77Z" transform="translate(-3.57 -3.57)"/></svg>